<svg width="50" height="50" viewBox="0 0 50 50" fill="none" xmlns="http://www.w3.org/2000/svg">
<g clip-path="url(#clip0_8_32)">
<path d="M10.9536 35.3678C10.1691 35.3678 9.54053 34.7738 9.54053 34.0413C9.54053 33.3089 10.1777 32.7148 10.9536 32.7148H20.2687C21.0533 32.7148 21.6818 33.3089 21.6818 34.0413C21.6818 34.7738 21.049 35.3678 20.2687 35.3678H10.9536ZM26.4846 31.5226C26.0685 31.5226 25.7131 31.189 25.7131 30.7821C25.7131 30.3914 26.0685 30.0578 26.4846 30.0578H28.5002C28.5176 30.0578 28.5609 30.0578 28.5782 30.0578C29.2891 30.0741 29.922 30.2043 30.4551 30.5217C31.049 30.8757 31.4824 31.4128 31.7209 32.2103C31.7209 32.2266 31.7209 32.2469 31.7425 32.2673L31.9419 33.0078H49.2328C49.6662 33.0078 50.0043 33.3415 50.0043 33.7321C50.0043 33.8053 49.9827 33.8786 49.9653 33.9559L47.9497 41.5812C47.8717 41.9149 47.5553 42.1387 47.1998 42.1387H34.5514C34.8288 43.103 35.1062 43.6239 35.479 43.8639C35.9341 44.1406 36.723 44.161 38.0494 44.1406H38.0668H47.0004C47.4339 44.1406 47.772 44.4743 47.772 44.8649C47.772 45.2718 47.4166 45.5892 47.0004 45.5892H38.0624C36.4196 45.6055 35.414 45.5689 34.6034 45.0684C33.7711 44.5475 33.3377 43.6605 32.9042 42.0451L30.2557 32.6335C30.2557 32.6131 30.2557 32.6131 30.2384 32.5968C30.1214 32.1899 29.922 31.9092 29.6446 31.7627C29.3671 31.5959 28.9944 31.5226 28.5566 31.5226C28.5349 31.5226 28.5176 31.5226 28.4959 31.5226H26.4846ZM44.6857 46.4396C45.7347 46.4396 46.5843 47.2371 46.5843 48.2218C46.5843 49.2065 45.7347 50.0041 44.6857 50.0041C43.6368 50.0041 42.7872 49.2065 42.7872 48.2218C42.7872 47.2371 43.6368 46.4396 44.6857 46.4396ZM36.3632 46.4396C37.4122 46.4396 38.2618 47.2371 38.2618 48.2218C38.2618 49.2065 37.4122 50.0041 36.3632 50.0041C35.3143 50.0041 34.4647 49.2065 34.4647 48.2218C34.4647 47.2371 35.3186 46.4396 36.3632 46.4396ZM10.9536 13.6637C10.1691 13.6637 9.54053 13.0656 9.54053 12.3372C9.54053 11.6048 10.1777 11.0107 10.9536 11.0107H32.8522C33.6368 11.0107 34.2653 11.6048 34.2653 12.3372C34.2653 13.0697 33.6324 13.6637 32.8522 13.6637H10.9536ZM3.28132 0H40.3988C41.3047 0 42.1283 0.345866 42.7178 0.899251C43.3073 1.45264 43.6758 2.22575 43.6758 3.07617V27.4821H40.8583V3.08838C40.8583 2.97038 40.8062 2.86051 40.7239 2.77913C40.6372 2.70182 40.5202 2.65299 40.3945 2.65299H3.28132C3.15561 2.65299 3.03858 2.70182 2.95189 2.77913C2.86519 2.85645 2.82185 2.97038 2.82185 3.08838V43.2373C2.82185 43.3553 2.87386 43.4652 2.95622 43.5466C3.03858 43.6279 3.15561 43.6727 3.28565 43.6727H27.1478C27.4122 44.6452 27.7113 45.4956 28.1144 46.3053H3.28132C2.37538 46.3053 1.5518 45.9595 0.962289 45.4061C0.368444 44.8568 0 44.0837 0 43.2332V3.08024C0 2.22982 0.368444 1.45264 0.957954 0.899251C1.54746 0.345866 2.37538 0 3.28132 0ZM10.9536 24.5158C10.1691 24.5158 9.54053 23.9217 9.54053 23.1893C9.54053 22.4569 10.1777 21.8628 10.9536 21.8628H32.8522C33.6368 21.8628 34.2653 22.4569 34.2653 23.1893C34.2653 23.9217 33.6324 24.5158 32.8522 24.5158H10.9536Z" fill="black"/>
</g>
<defs>
<clipPath id="clip0_8_32">
<rect width="50" height="50" fill="white"/>
</clipPath>
</defs>
</svg>
